<svg width="143" height="24" viewBox="0 0 143 24" fill="none" xmlns="http://www.w3.org/2000/svg">
<path d="M10.76 16.92L1.24 13.3V10.7L10.76 7.08V9.58L2.18 12.7V11.3L10.76 14.42V16.92ZM13.2127 16.92V14.42L21.7927 11.3V12.7L13.2127 9.58V7.08L22.7327 10.7V13.3L13.2127 16.92Z" fill="#28E1F2"/>
<path d="M28.6053 11.3H35.3253V13.9H28.6053V11.3ZM28.8453 19H25.6053V5H36.1853V7.6H28.8453V19ZM37.9634 19V8.24H40.9434V11.28L40.5234 10.4C40.8434 9.64 41.3568 9.06667 42.0634 8.68C42.7701 8.28 43.6301 8.08 44.6434 8.08V10.96C44.5101 10.9467 44.3901 10.94 44.2834 10.94C44.1768 10.9267 44.0634 10.92 43.9434 10.92C43.0901 10.92 42.3968 11.1667 41.8634 11.66C41.3434 12.14 41.0834 12.8933 41.0834 13.92V19H37.9634ZM51.5405 19.16C50.3938 19.16 49.3738 18.92 48.4805 18.44C47.6005 17.96 46.9005 17.3067 46.3805 16.48C45.8738 15.64 45.6205 14.6867 45.6205 13.62C45.6205 12.54 45.8738 11.5867 46.3805 10.76C46.9005 9.92 47.6005 9.26667 48.4805 8.8C49.3738 8.32 50.3938 8.08 51.5405 8.08C52.6738 8.08 53.6871 8.32 54.5805 8.8C55.4738 9.26667 56.1738 9.91333 56.6805 10.74C57.1871 11.5667 57.4405 12.5267 57.4405 13.62C57.4405 14.6867 57.1871 15.64 56.6805 16.48C56.1738 17.3067 55.4738 17.96 54.5805 18.44C53.6871 18.92 52.6738 19.16 51.5405 19.16ZM51.5405 16.6C52.0605 16.6 52.5271 16.48 52.9405 16.24C53.3538 16 53.6805 15.66 53.9205 15.22C54.1605 14.7667 54.2805 14.2333 54.2805 13.62C54.2805 12.9933 54.1605 12.46 53.9205 12.02C53.6805 11.58 53.3538 11.24 52.9405 11C52.5271 10.76 52.0605 10.64 51.5405 10.64C51.0205 10.64 50.5538 10.76 50.1405 11C49.7271 11.24 49.3938 11.58 49.1405 12.02C48.9005 12.46 48.7805 12.9933 48.7805 13.62C48.7805 14.2333 48.9005 14.7667 49.1405 15.22C49.3938 15.66 49.7271 16 50.1405 16.24C50.5538 16.48 51.0205 16.6 51.5405 16.6ZM66.0659 8.08C66.9193 8.08 67.6793 8.25333 68.3459 8.6C69.0259 8.93333 69.5593 9.45333 69.9459 10.16C70.3326 10.8533 70.5259 11.7467 70.5259 12.84V19H67.4059V13.32C67.4059 12.4533 67.2126 11.8133 66.8259 11.4C66.4526 10.9867 65.9193 10.78 65.2259 10.78C64.7326 10.78 64.2859 10.8867 63.8859 11.1C63.4993 11.3 63.1926 11.6133 62.9659 12.04C62.7526 12.4667 62.6459 13.0133 62.6459 13.68V19H59.5259V8.24H62.5059V11.22L61.9459 10.32C62.3326 9.6 62.8859 9.04667 63.6059 8.66C64.3259 8.27333 65.1459 8.08 66.0659 8.08ZM77.7541 19.16C76.4874 19.16 75.5007 18.84 74.7941 18.2C74.0874 17.5467 73.7341 16.58 73.7341 15.3V5.86H76.8541V15.26C76.8541 15.7133 76.9741 16.0667 77.2141 16.32C77.4541 16.56 77.7807 16.68 78.1941 16.68C78.6874 16.68 79.1074 16.5467 79.4541 16.28L80.2941 18.48C79.9741 18.7067 79.5874 18.88 79.1341 19C78.6941 19.1067 78.2341 19.16 77.7541 19.16ZM72.0741 10.88V8.48H79.5341V10.88H72.0741ZM89.0255 19.24C87.9188 19.24 86.8988 19.0667 85.9655 18.72C85.0455 18.36 84.2388 17.8533 83.5455 17.2C82.8655 16.5467 82.3321 15.78 81.9455 14.9C81.5721 14.02 81.3855 13.0533 81.3855 12C81.3855 10.9467 81.5721 9.98 81.9455 9.1C82.3321 8.22 82.8721 7.45333 83.5655 6.8C84.2588 6.14667 85.0721 5.64667 86.0055 5.3C86.9388 4.94 87.9655 4.76 89.0855 4.76C90.3255 4.76 91.4388 4.96667 92.4255 5.38C93.4255 5.79333 94.2655 6.39333 94.9455 7.18L92.8655 9.1C92.3588 8.56667 91.8055 8.17333 91.2055 7.92C90.6055 7.65333 89.9521 7.52 89.2455 7.52C88.5655 7.52 87.9455 7.62667 87.3855 7.84C86.8255 8.05333 86.3388 8.36 85.9255 8.76C85.5255 9.16 85.2121 9.63333 84.9855 10.18C84.7721 10.7267 84.6655 11.3333 84.6655 12C84.6655 12.6533 84.7721 13.2533 84.9855 13.8C85.2121 14.3467 85.5255 14.8267 85.9255 15.24C86.3388 15.64 86.8188 15.9467 87.3655 16.16C87.9255 16.3733 88.5388 16.48 89.2055 16.48C89.8455 16.48 90.4655 16.38 91.0655 16.18C91.6788 15.9667 92.2721 15.6133 92.8455 15.12L94.6855 17.46C93.9255 18.0333 93.0388 18.4733 92.0255 18.78C91.0255 19.0867 90.0255 19.24 89.0255 19.24ZM91.7255 17.04V11.78H94.6855V17.46L91.7255 17.04ZM97.6952 19V5H103.755C105.008 5 106.088 5.20667 106.995 5.62C107.902 6.02 108.602 6.6 109.095 7.36C109.588 8.12 109.835 9.02667 109.835 10.08C109.835 11.12 109.588 12.02 109.095 12.78C108.602 13.5267 107.902 14.1 106.995 14.5C106.088 14.9 105.008 15.1 103.755 15.1H99.4952L100.935 13.68V19H97.6952ZM106.595 19L103.095 13.92H106.555L110.095 19H106.595ZM100.935 14.04L99.4952 12.52H103.575C104.575 12.52 105.322 12.3067 105.815 11.88C106.308 11.44 106.555 10.84 106.555 10.08C106.555 9.30667 106.308 8.70667 105.815 8.28C105.322 7.85333 104.575 7.64 103.575 7.64H99.4952L100.935 6.1V14.04Z" fill="white"/>
<path d="M121.502 16.92L111.982 13.3V10.7L121.502 7.08V9.58L112.922 12.7V11.3L121.502 14.42V16.92ZM122.055 21L128.655 2.16H131.435L124.835 21H122.055ZM131.787 16.92V14.42L140.367 11.3V12.7L131.787 9.58V7.08L141.307 10.7V13.3L131.787 16.92Z" fill="#2CDEF5"/>
</svg>
