<svg width="30" height="30" viewBox="0 0 30 30" fill="none" xmlns="http://www.w3.org/2000/svg">
<g clip-path="url(#clip0_18_160)">
<path d="M15,0.5 A14.5,14.5 0 1,1 15,29.5 A14.5,14.5 0 1,1 15,0.5" stroke="white"/>
<path d="M19.0833 9H10.9167C10.1434 9.00094 9.40208 9.31252 8.85529 9.8664C8.30851 10.4203 8.00093 11.1712 8 11.9545V19.0455C8.00093 19.8288 8.30851 20.5797 8.85529 21.1336C9.40208 21.6875 10.1434 21.9991 10.9167 22H19.0833C19.8566 21.9991 20.5979 21.6875 21.1447 21.1336C21.6915 20.5797 21.9991 19.8288 22 19.0455V11.9545C21.9991 11.1712 21.6915 10.4203 21.1447 9.8664C20.5979 9.31252 19.8566 9.00094 19.0833 9ZM10.9167 10.1818H19.0833C19.4326 10.1825 19.7737 10.2891 20.0627 10.4878C20.3517 10.6865 20.5754 10.9683 20.705 11.2969L16.2378 15.8226C15.9091 16.1543 15.464 16.3405 15 16.3405C14.536 16.3405 14.0909 16.1543 13.7622 15.8226L9.295 11.2969C9.42459 10.9683 9.64827 10.6865 9.93728 10.4878C10.2263 10.2891 10.5674 10.1825 10.9167 10.1818ZM19.0833 20.8182H10.9167C10.4525 20.8182 10.0074 20.6314 9.67923 20.299C9.35104 19.9665 9.16667 19.5156 9.16667 19.0455V12.8409L12.9373 16.6582C13.4849 17.2114 14.2266 17.5221 15 17.5221C15.7733 17.5221 16.5151 17.2114 17.0627 16.6582L20.8333 12.8409V19.0455C20.8333 19.5156 20.649 19.9665 20.3208 20.299C19.9926 20.6314 19.5475 20.8182 19.0833 20.8182Z" fill="white"/>
</g>
<defs>
<clipPath id="clip0_18_160">
<rect width="30" height="30" fill="white"/>
</clipPath>
</defs>
</svg>
