<svg width="30" height="30" viewBox="0 0 30 30" fill="none" xmlns="http://www.w3.org/2000/svg">
<g clip-path="url(#clip0_18_154)">
<path d="M15,0.5 A14.5,14.5 0 1,1 15,29.5 A14.5,14.5 0 1,1 15,0.5" stroke="white"/>
<path d="M7.96229 15.166C11.7211 13.4727 14.227 12.3562 15.4799 11.8168C19.0614 10.2766 19.8047 10.0091 20.2902 10.0001C20.397 9.99831 20.6347 10.0256 20.7898 10.1553C20.9187 10.2647 20.9549 10.4126 20.9731 10.5164C20.9892 10.6202 21.0113 10.8566 20.9932 11.0412C20.7998 13.1495 19.9598 18.2657 19.5328 20.6272C19.3535 21.6263 18.997 21.9613 18.6525 21.9941C17.9032 22.0653 17.3351 21.4824 16.61 20.9909C15.4759 20.2216 14.8353 19.7428 13.7334 18.9922C12.4604 18.1247 13.2863 17.6478 14.0114 16.8687C14.2008 16.6647 17.5003 13.5616 17.5627 13.2802C17.5708 13.245 17.5789 13.1137 17.5023 13.0445C17.4278 12.9752 17.317 12.9989 17.2364 13.0177C17.1216 13.0443 15.3107 14.2835 11.7976 16.7349C11.284 17.1003 10.8187 17.2785 10.3997 17.2691C9.94039 17.2589 9.05407 16.9999 8.39538 16.7787C7.58963 16.5072 6.94705 16.3637 7.00345 15.9026C7.03165 15.6626 7.35193 15.417 7.96229 15.166Z" fill="white"/>
</g>
<defs>
<clipPath id="clip0_18_154">
<rect width="30" height="30" fill="white"/>
</clipPath>
</defs>
</svg>
